# xmcd
# 
# Track frame offsets:
#     150
#     15287
#     29250
#     46067
#     59540
#     77792
#     88917
#     99215
#     112730
#     123702
# 
# Disc length: 1734
# 
# Revision: 7
# Processed by: cddbd v1.5.2PL0 Copyright (c) Steve Scherf et al.
# Submitted via: fre:ac v1.0.17
# 
DISCID=7006c40a
DTITLE=Various Artist - New Country - Volume 3 - Number 8
DYEAR=1996
DGENRE=Country
TTITLE0=Marty Stuart - Sweet Love
TTITLE1=The Cox Family - Runaway
TTITLE2=Willy DeVille and Brenda Lee - You'll Never Know
TTITLE3=Texas Tornados - Clinging To You
TTITLE4=Philip Claypool - Circus Leaving Town
TTITLE5=Webb Wilder - Tell Me Why Charlene
TTITLE6=The Carpetbaggers - Sin Now...Pray Later
TTITLE7=Sleepy LaBeef - Treat Me Like A Dog
TTITLE8=Laurel Canyon Ramblers - Bad Case Of The Blues
TTITLE9=Patsy Cline - The Man Upstairs
EXTD=
EXTT0=
EXTT1=
EXTT2=
EXTT3=
EXTT4=
EXTT5=
EXTT6=
EXTT7=
EXTT8=
EXTT9=
PLAYORDER=
